<svg preserveAspectRatio="none" overflow="visible" style="display: block;" width="47.6569" height="40" viewBox="0 0 47.6569 40" fill="none" xmlns="http://www.w3.org/2000/svg">
<path id="Vector" fill-rule="evenodd" clip-rule="evenodd" d="M3.92718 18H0L5.82843 23.8284L11.6569 18H7.95221C8.93641 10.1074 15.6692 4 23.8284 4C29.9296 4 35.2364 7.41426 37.9368 12.4458L41.4613 10.5542C38.0919 4.27625 31.4611 0 23.8284 0C13.4577 0 4.93063 7.89335 3.92718 18ZM21.4424 11H26.2144L32.7011 28.2978L28.9558 29.7022L26.8174 24H20.8394L18.7011 29.7022L14.9558 28.2978L21.4424 11ZM22.3394 20H25.3174L23.8284 16.0293L22.3394 20ZM41.8284 16.1716L47.6569 22H43.7297C42.7262 32.1066 34.1991 40 23.8284 40C16.1958 40 9.56497 35.7237 6.19557 29.4458L9.72004 27.5542C12.4205 32.5857 17.7273 36 23.8284 36C31.9877 36 38.7204 29.8926 39.7046 22H36L41.8284 16.1716Z" fill="#4E5969"/>
</svg>
